<svg width="24" height="25" viewBox="0 0 24 25" fill="none" xmlns="http://www.w3.org/2000/svg">
<path d="M22 10.277V15.3499C22 20.4227 20 22.4519 15 22.4519H9C4 22.4519 2 20.4227 2 15.3499V9.2624C2 4.18951 4 2.16036 9 2.16036H14" stroke="url(#paint0_linear_924_1198)" stroke-width="1.5" stroke-linecap="round" stroke-linejoin="round"/>
<path d="M22 10.277H18C15 10.277 14 9.2624 14 6.21867V2.16036L22 10.277Z" stroke="url(#paint1_linear_924_1198)" stroke-width="1.5" stroke-linecap="round" stroke-linejoin="round"/>
<path d="M7 13.3207H13" stroke="url(#paint2_linear_924_1198)" stroke-width="1.5" stroke-linecap="round" stroke-linejoin="round"/>
<path d="M7 17.379H11" stroke="url(#paint3_linear_924_1198)" stroke-width="1.5" stroke-linecap="round" stroke-linejoin="round"/>
<defs>
<linearGradient id="paint0_linear_924_1198" x1="2.16073" y1="3.75812" x2="22.3562" y2="4.15115" gradientUnits="userSpaceOnUse">
<stop stop-color="#4965E0"/>
<stop offset="1" stop-color="#896CDD"/>
</linearGradient>
<linearGradient id="paint1_linear_924_1198" x1="14.0643" y1="2.79946" x2="22.1425" y2="2.95667" gradientUnits="userSpaceOnUse">
<stop stop-color="#4965E0"/>
<stop offset="1" stop-color="#896CDD"/>
</linearGradient>
<linearGradient id="paint2_linear_924_1198" x1="7.04822" y1="13.3994" x2="13.0253" y2="14.1075" gradientUnits="userSpaceOnUse">
<stop stop-color="#4965E0"/>
<stop offset="1" stop-color="#896CDD"/>
</linearGradient>
<linearGradient id="paint3_linear_924_1198" x1="7.03215" y1="17.4578" x2="11.0477" y2="17.7749" gradientUnits="userSpaceOnUse">
<stop stop-color="#4965E0"/>
<stop offset="1" stop-color="#896CDD"/>
</linearGradient>
</defs>
</svg>
